<svg xmlns="http://www.w3.org/2000/svg" viewBox="-8.03545 -14.545 10.45 14.6">
	<path d="M -3.762 -0.049 L -3.761 -0.684 L -7.607 -0.684 L -7.624 -0.046 M -7.607 -0.684 C -8.114 -0.654 -7.966 -0.017 -7.621 -0.048 M -3.762 -0.049 C -3.345 -0.068 -3.367 -0.665 -3.761 -0.684 M -5.373 -10.798 L -6.013 -10.798 L -6.012 -0.684 L -5.374 -0.684 M -6.011 -14.16 L -5.372 -13.804 L -5.373 -10.798 L -6.013 -10.798 M -5.373 -10.798 L -5.373 -11.694 L -3.261 -13.806 L -2.365 -13.806 M -6.01 -14.16 C -5.996 -14.347 -5.815 -14.446 -5.726 -14.443 L 1.996 -14.445 L 1.669 -13.806 L -5.376 -13.805 M 1.667 -13.806 L 1.667 -11.214 L 2.307 -11.214 L 2.306 -13.804 C 2.308 -14.126 2.365 -14.392 1.996 -14.441" fill="#000000"/>
</svg>