<svg xmlns="http://www.w3.org/2000/svg" viewBox="-7.93545 -14.445 12.81 14.4">
	<path d="M -3.762 -0.049 L -3.761 -0.684 L -7.607 -0.684 L -7.624 -0.046 M -7.607 -0.684 C -8.114 -0.654 -7.966 -0.017 -7.621 -0.048 M -3.762 -0.049 C -3.345 -0.068 -3.367 -0.665 -3.761 -0.684 M -5.373 -10.798 L -6.013 -10.798 L -6.012 -0.684 L -5.374 -0.684 M -6.011 -14.16 L -5.372 -13.804 L -5.373 -10.798 L -6.013 -10.798 M -5.373 -10.798 L -5.373 -11.694 L -3.261 -13.806 L -2.365 -13.806 M -6.01 -14.16 C -5.996 -14.347 -5.815 -14.446 -5.726 -14.443 L 1.996 -14.445 L 1.669 -13.806 L -5.376 -13.805 M 1.667 -13.806 L 1.667 -11.214 L 2.307 -11.214 L 2.306 -13.804 C 2.308 -14.126 2.365 -14.392 1.996 -14.441 M 1.994 -11.218 C 1.377 -11.286 0.125 -10.786 0.076 -9.451 L 0.71 -9.441 C 0.909 -10.58 1.842 -10.595 2 -10.607 M 1.984 -7.428 L 1.996 -8.046 C 1.852 -8.014 0.684 -8.209 0.71 -9.44 L 0.077 -9.45 C -0.007 -7.876 1.495 -7.307 1.983 -7.427 M 3.269 -9.356 C 3.262 -9.504 3.154 -10.511 2 -10.609 L 1.995 -11.214 C 2.489 -11.263 3.821 -10.928 3.907 -9.34 L 3.269 -9.356 M 2 -8.049 C 3 -8.117 3.276 -8.943 3.269 -9.355 L 3.907 -9.34 C 3.992 -8.781 3.375 -7.379 1.984 -7.427 L 1.997 -8.045 M 1.667 -7.426 L 1.667 -3.358 L 1.987 -2.75 L 2.307 -3.358 L 2.308 -7.428 L 2.342 -7.447 C 2.282 -7.439 2.227 -7.432 2.101 -7.426 M 2.307 -6.67 L 2.308 -5.984 L 4.451 -5.177 C 4.761 -5.091 5.124 -5.535 4.644 -5.799 M -0.429 -5.195 C -0.721 -5.047 -1.155 -5.451 -0.731 -5.769 L 1.668 -6.672 L 1.668 -5.982 M 1.987 -2.75 L 2.307 -3.358 L 3.757 -1.63 C 4.148 -1.299 3.713 -0.79 3.361 -1.103 M 1.667 -3.358 L 1.987 -2.75 L 0.7 -1.188 C 0.498 -0.795 -0.176 -1.114 0.169 -1.563" fill="#000000"/>
</svg>